<?xml version="1.0" encoding="UTF-8" standalone="no"?>
<svg
   shape-rendering="geometricPrecision"
   text-rendering="geometricPrecision"
   image-rendering="optimizeQuality"
   fill-rule="evenodd"
   clip-rule="evenodd"
   viewBox="0 0 512 511.99999"
   version="1.1"
   id="svg2"
   sodipodi:docname="librechat-icons.svg"
   inkscape:export-filename="gpt-ai-icon.png"
   inkscape:export-xdpi="96"
   inkscape:export-ydpi="96"
   inkscape:version="1.4.1 (93de688d07, 2025-03-30)"
   xml:space="preserve"
   width="512"
   height="512"
   xmlns:inkscape="http://www.inkscape.org/namespaces/inkscape"
   xmlns:sodipodi="http://sodipodi.sourceforge.net/DTD/sodipodi-0.dtd"
   xmlns="http://www.w3.org/2000/svg"
   xmlns:svg="http://www.w3.org/2000/svg"><defs
     id="defs2"><radialGradient
       id="prefix__paint0_radial_980_20147"
       cx="0"
       cy="0"
       r="1"
       gradientUnits="userSpaceOnUse"
       gradientTransform="matrix(545.05112,184.31111,-1476.4502,4366.1999,39.366094,350.19509)"><stop
         offset=".067"
         stop-color="#9168C0"
         id="stop1" /><stop
         offset=".343"
         stop-color="#5684D1"
         id="stop2" /><stop
         offset=".672"
         stop-color="#1BA1E3"
         id="stop3" /></radialGradient></defs><sodipodi:namedview
     id="namedview2"
     pagecolor="#ffffff"
     bordercolor="#000000"
     borderopacity="0.25"
     inkscape:showpageshadow="2"
     inkscape:pageopacity="0.0"
     inkscape:pagecheckerboard="0"
     inkscape:deskcolor="#d1d1d1"
     inkscape:zoom="0.83525287"
     inkscape:cx="399.8789"
     inkscape:cy="462.1355"
     inkscape:window-width="2560"
     inkscape:window-height="1412"
     inkscape:window-x="0"
     inkscape:window-y="0"
     inkscape:window-maximized="1"
     inkscape:current-layer="svg2" /><g
     id="g2"
     transform="translate(-815.55024,-570.25496)"><rect
       style="fill:#ffffff;fill-opacity:1;stroke-width:1.20879"
       id="rect2-5"
       width="617.46948"
       height="617.46948"
       x="1043.1609"
       y="31.397394"
       ry="308.73474"
       inkscape:label="Circle"
       transform="matrix(0.74418605,0,0,0.74418605,65.488372,573.13337)" /><path
       d="m 1212.5222,796.40022 c 7.4676,-22.41283 4.8962,-46.96512 -7.0457,-67.35163 -17.9591,-31.26894 -54.0624,-47.35598 -89.3222,-39.78561 -15.6859,-17.67106 -38.2223,-27.72032 -61.8487,-27.57632 -36.0416,-0.0823 -68.02022,23.12255 -79.10838,57.41551 -23.15344,4.74179 -43.1388,19.23452 -54.83381,39.77533 -18.09281,31.18665 -13.9681,70.49911 10.20355,97.24227 -7.46748,22.41284 -4.89599,46.96512 7.04581,67.35164 17.95904,31.26893 54.06231,47.35597 89.32223,39.7856 15.6756,17.67107 38.2221,27.72034 61.8487,27.56606 36.062,0.0925 68.051,-23.13286 79.1392,-57.4567 23.1534,-4.74176 43.1387,-19.2345 54.8337,-39.7753 18.0722,-31.18665 13.9374,-70.46825 -10.2241,-97.21141 z m -123.718,172.91515 c -14.4309,0.0206 -28.4094,-5.02978 -39.4873,-14.27674 0.504,-0.26743 1.3783,-0.75086 1.944,-1.10059 l 65.5414,-37.85186 c 3.3531,-1.90289 5.4103,-5.47207 5.3898,-9.32925 v -92.39764 l 27.6998,15.99448 c 0.2982,0.14399 0.4936,0.432 0.5348,0.76114 v 76.51631 c -0.042,34.02554 -27.5969,61.61215 -61.6225,61.68415 z M 956.28157,912.71242 c -7.23091,-12.487 -9.83327,-27.12374 -7.35433,-41.32847 0.48336,0.288 1.33708,0.81257 1.94403,1.1623 l 65.54123,37.85186 c 3.3224,1.94403 7.4368,1.94403 10.7693,0 l 80.0135,-46.20396 v 31.98894 c 0.02,0.32915 -0.1337,0.64801 -0.3908,0.85373 l -66.2511,38.25301 c -29.5101,16.9922 -67.19738,6.89151 -84.26148,-22.57741 z M 939.03221,769.64677 c 7.20011,-12.50757 18.56599,-22.0734 32.10206,-27.04145 0,0.56572 -0.0311,1.56344 -0.0311,2.26287 v 75.71403 c -0.0202,3.84691 2.03665,7.41609 5.3795,9.31896 l 80.01373,46.19368 -27.7,15.99447 c -0.2777,0.18515 -0.6275,0.216 -0.936,0.0823 L 961.59907,853.88775 C 932.15071,836.83384 922.05005,799.15683 939.0216,769.65706 Z m 227.58439,52.96175 -80.0135,-46.20395 27.6997,-15.98419 c 0.2778,-0.18515 0.6275,-0.21601 0.9361,-0.0823 l 66.2613,38.25301 c 29.4998,17.04363 39.6108,54.78236 22.5671,84.28212 -7.2104,12.48701 -18.566,22.05284 -32.0918,27.03118 v -77.9769 c 0.031,-3.84692 -2.016,-7.40581 -5.3487,-9.31897 z m 27.566,-41.49305 c -0.4834,-0.29828 -1.3372,-0.81258 -1.944,-1.1623 l -65.5414,-37.85187 c -3.3223,-1.94402 -7.4367,-1.94402 -10.7691,0 l -80.0136,46.20396 v -31.98893 c -0.02,-0.32915 0.1337,-0.64801 0.3909,-0.85372 l 66.251,-38.22216 c 29.5101,-17.02305 67.2385,-6.89151 84.2513,22.62883 7.1897,12.46642 9.7921,27.06203 7.3543,41.24619 z m -173.3266,57.01438 -27.71007,-15.99448 c -0.29819,-0.144 -0.49363,-0.43199 -0.53477,-0.76114 v -76.51632 c 0.0202,-34.06668 27.65864,-61.67386 61.72524,-61.65329 14.4105,0 28.3581,5.06064 39.4359,14.27674 -0.504,0.26744 -1.368,0.75086 -1.9441,1.10059 l -65.5412,37.85186 c -3.3532,1.90288 -5.4104,5.46177 -5.3898,9.31897 l -0.042,92.3565 z m 15.0482,-32.44152 35.6404,-20.58195 35.6404,20.57167 v 41.15361 l -35.6404,20.57167 -35.6404,-20.57167 z"
       id="path1-36"
       style="stroke-width:1.02859" /></g><g
     id="g1"
     inkscape:label="Claude Original"><path
       fill="#d77655"
       d="m -615.83148,0 h 280.775 c 63.587,0 115.613,52.026 115.613,115.612 v 278.415 c 0,63.587 -52.026,115.612 -115.613,115.612 h -280.775 c -63.586,0 -115.612,-52.025 -115.612,-115.612 V 115.612 c 0,-63.586 52.026,-115.612 115.612,-115.612 z"
       id="path1" /><path
       fill="#fcf2ee"
       fill-rule="nonzero"
       d="m -589.17348,316.619 73.655,-41.326 1.238,-3.589 -1.238,-1.996 -3.589,-0.001 -12.31,-0.759 -42.084,-1.138 -36.498,-1.516 -35.361,-1.896 -8.897,-1.895 -8.34,-10.995 0.859,-5.484 7.482,-5.03 10.717,0.935 23.683,1.617 35.537,2.452 25.782,1.517 38.193,3.968 h 6.064 l 0.86,-2.451 -2.073,-1.517 -1.618,-1.517 -36.776,-24.922 -39.81,-26.338 -20.852,-15.166 -11.273,-7.683 -5.687,-7.204 -2.451,-15.721 10.237,-11.273 13.75,0.935 3.513,0.936 13.928,10.716 29.749,23.027 38.848,28.612 5.687,4.727 2.275,-1.617 0.278,-1.138 -2.553,-4.271 -21.13,-38.193 -22.546,-38.848 -10.035,-16.101 -2.654,-9.655 c -0.935,-3.968 -1.617,-7.304 -1.617,-11.374 l 11.652,-15.823 6.445,-2.073 15.545,2.073 6.547,5.687 9.655,22.092 15.646,34.78 24.265,47.291 7.103,14.028 3.791,12.992 1.416,3.968 2.449,-10e-4 v -2.275 l 1.997,-26.641 3.69,-32.707 3.589,-42.084 1.239,-11.854 5.863,-14.206 11.652,-7.683 9.099,4.348 7.482,10.716 -1.036,6.926 -4.449,28.915 -8.72,45.294 -5.687,30.331 h 3.313 l 3.792,-3.791 15.342,-20.372 25.782,-32.227 11.374,-12.789 13.27,-14.129 8.517,-6.724 16.1,-0.001 11.854,17.617 -5.307,18.199 -16.581,21.029 -13.75,17.819 -19.716,26.54 -12.309,21.231 1.138,1.694 2.932,-0.278 44.536,-9.479 24.062,-4.347 28.714,-4.928 12.992,6.066 1.416,6.167 -5.106,12.613 -30.71,7.583 -36.018,7.204 -53.636,12.689 -0.657,0.48 0.758,0.935 24.164,2.275 10.337,0.556 h 25.301 l 47.114,3.514 12.309,8.139 7.381,9.959 -1.238,7.583 -18.957,9.655 -25.579,-6.066 -59.702,-14.205 -20.474,-5.106 -2.83,-0.001 v 1.694 l 17.061,16.682 31.266,28.233 39.152,36.397 1.997,8.999 -5.03,7.102 -5.307,-0.758 -34.401,-25.883 -13.27,-11.651 -30.053,-25.302 -1.996,-0.001 v 2.654 l 6.926,10.136 36.574,54.975 1.895,16.859 -2.653,5.485 -9.479,3.311 -10.414,-1.895 -21.408,-30.054 -22.092,-33.844 -17.819,-30.331 -2.173,1.238 -10.515,113.261 -4.929,5.788 -11.374,4.348 -9.478,-7.204 -5.03,-11.652 5.03,-23.027 6.066,-30.052 4.928,-23.886 4.449,-29.674 2.654,-9.858 -0.177,-0.657 -2.173,0.278 -22.37,30.71 -34.021,45.977 -26.919,28.815 -6.445,2.553 -11.173,-5.789 1.037,-10.337 6.243,-9.2 37.257,-47.392 22.47,-29.371 14.508,-16.961 -0.101,-2.451 h -0.859 l -98.954,64.251 -17.618,2.275 -7.583,-7.103 0.936,-11.652 3.589,-3.791 29.749,-20.474 -0.101,0.102 z"
       id="path2" /></g><g
     id="g3"
     inkscape:label="Gemini"
     transform="matrix(0.74418605,0,0,0.74418605,65.488372,573.13337)"><rect
       style="fill:#ffffff;fill-opacity:1;stroke-width:1.20879"
       id="rect2"
       width="617.46948"
       height="617.46948"
       x="-52.734741"
       y="92.037544"
       ry="308.73474"
       inkscape:label="Circle" /><path
       d="m 526.28556,401.31285 c -145.12707,8.90618 -260.83881,124.61792 -269.745,269.74499 h -1.08114 C 246.56794,525.92416 130.84809,410.20432 -14.285588,401.31285 v -1.08116 C 130.84809,391.34022 246.56794,275.62038 255.45942,130.4867 h 1.08114 c 8.90619,145.12704 124.61793,260.8388 269.745,269.74499 z"
       fill="url(#prefix__paint0_radial_980_20147)"
       id="path1-3"
       style="fill:url(#prefix__paint0_radial_980_20147);stroke-width:33.7857"
       sodipodi:nodetypes="ccccccccc"
       inkscape:label="Gemini Gradient Star" /></g><g
     id="g4"
     inkscape:label="Claude"
     transform="matrix(0.93615788,0,0,0.93615788,210.49087,216.77173)"><circle
       style="fill:#1a1a1a;fill-opacity:1"
       id="path3"
       cx="937.44067"
       cy="41.903477"
       r="245.43466"
       inkscape:label="Circle" /><path
       fill="#fcf2ee"
       fill-rule="nonzero"
       d="m 844.58016,92.362753 60.1393,-33.742668 1.01082,-2.930418 -1.01082,-1.629733 -2.93042,-8.16e-4 -10.05111,-0.619724 -34.36158,-0.929176 -29.80061,-1.237814 -28.87225,-1.548083 -7.26439,-1.547267 -6.80961,-8.977414 0.70137,-4.477685 6.10905,-4.106993 8.75043,0.763427 19.33716,1.32028 29.01595,2.002057 21.05101,1.23863 31.18457,3.239871 h 4.95125 l 0.70219,-2.001241 -1.6926,-1.23863 -1.3211,-1.23863 -30.02759,-20.348805 -32.50486,-21.5049689 -17.02565,-12.3830341 -9.2044,-6.273167 -4.64344,-5.882064 -2.00124,-12.836192 8.35851,-9.204401 11.22687,0.763427 2.86836,0.764244 11.37221,8.749611 24.29005,18.801538 31.71939,23.3616894 4.64343,3.8595942 1.85754,-1.32028 0.22699,-0.92917668 -2.08453,-3.48727032 -17.25264,-31.1845726 -18.40881,-31.71938 -8.19357,-13.14646 -2.16699,-7.883305 c -0.76343,-3.239871 -1.32028,-5.963713 -1.32028,-9.286867 l 9.51385,-12.919476 5.26235,-1.6926 12.69249,1.6926 5.34562,4.64343 7.88331,18.038116 12.77495,28.397858 19.81237,38.613087 5.79959,11.4538575 3.09535,10.6079641 1.15617,3.2398708 1.99961,-8.165e-4 V 3.8272401 l 1.63055,-21.7523681 3.01288,-26.705256 2.93042,-34.361571 1.01164,-9.678788 4.78714,-11.599197 9.51385,-6.27316 7.42933,3.55014 6.10905,8.749607 -0.84589,5.655077 -3.63261,23.609087 -7.11988,36.982537 -4.64343,24.7652521 h 2.70506 l 3.09617,-3.0953503 12.52674,-16.6337318 21.051,-26.313336 9.2869,-10.442214 10.8349,-11.536324 6.9542,-5.490143 13.1456,-8.16e-4 9.6788,14.384273 -4.3332,14.859478 -13.5384,17.170172 -11.2268,14.549208 -16.0981,21.6699023 -10.05033,17.3351047 0.92918,1.383151 2.39397,-0.226987 36.36368,-7.739601 19.6466,-3.549324 23.4449,-4.0237104 10.608,4.9528874 1.1562,5.035353 -4.1691,10.298511 -25.0747,6.191517 -29.4087,5.882064 -43.79376,10.360564 -0.53644,0.39192 0.6189,0.763427 19.7299,1.857537 8.4402,0.453974 h 20.6582 l 38.4686,2.86918 10.0503,6.645491 6.0266,8.13152 -1.0108,6.191518 -15.4784,7.883304 -20.8853,-4.952887 -48.7466,-11.598378 -16.71707,-4.169048 -2.3107,-8.16e-4 v 1.38315 l 13.93032,13.620848 25.52865,23.052242 31.9676,29.71814 1.6306,7.34768 -4.107,5.79878 -4.3332,-0.61891 -28.0884,-21.13346 -10.8349,-9.51304 -24.53832,-20.659075 -1.62973,-8.16e-4 v 2.16699 l 5.65509,8.276041 29.86266,44.88707 1.5473,13.76537 -2.1662,4.4785 -7.7396,2.70343 -8.503,-1.54727 -17.47968,-24.53908 -18.03811,-27.63361 -14.54921,-24.765256 -1.77425,1.010826 -8.58549,92.47757 -4.02453,4.7259 -9.28687,3.55014 -7.73878,-5.88206 -4.107,-9.51386 4.107,-18.80153 4.95288,-24.53745 4.02372,-19.50291 3.6326,-24.228816 2.16699,-8.049056 -0.14452,-0.53644 -1.77425,0.226987 -18.2651,25.074705 -27.77814,37.54021 -21.97936,23.52744 -5.26234,2.08452 -9.12275,-4.72672 0.84671,-8.44015 5.09741,-7.5118 30.42033,-38.69555 18.34675,-23.981418 11.84578,-13.848651 -0.0825,-2.001241 h -0.70137 l -80.79592,52.46092 -14.38509,1.85754 -6.19152,-5.7996 0.76425,-9.51385 2.93041,-3.09535 24.29005,-16.717017 -0.0825,0.08328 z"
       id="path2-6"
       style="fill:#d77655;fill-opacity:1;stroke-width:0.8165"
       inkscape:export-filename="path2-6.png"
       inkscape:export-xdpi="96"
       inkscape:export-ydpi="96"
       inkscape:label="Claude Anus" /></g></svg>
