<?xml version="1.0" encoding="UTF-8" standalone="no"?>
<!-- Created with Inkscape (http://www.inkscape.org/) -->

<svg
   version="1.1"
   id="svg1"
   width="1024.0001"
   height="1024"
   viewBox="0 0 1024.0001 1024"
   sodipodi:docname="1Password.png"
   xmlns:inkscape="http://www.inkscape.org/namespaces/inkscape"
   xmlns:sodipodi="http://sodipodi.sourceforge.net/DTD/sodipodi-0.dtd"
   xmlns="http://www.w3.org/2000/svg"
   xmlns:svg="http://www.w3.org/2000/svg">
  <defs
     id="defs1" />
  <sodipodi:namedview
     id="namedview1"
     pagecolor="#ffffff"
     bordercolor="#000000"
     borderopacity="0.25"
     inkscape:showpageshadow="2"
     inkscape:pageopacity="0.0"
     inkscape:pagecheckerboard="0"
     inkscape:deskcolor="#474747" />
  <g
     inkscape:groupmode="layer"
     inkscape:label="Image"
     id="g1"
     transform="translate(-1313.5214)">
    <rect
       style="fill:#0b1c31;fill-opacity:1;stroke:#000000;stroke-width:0"
       id="rect1"
       width="1024"
       height="1024"
       x="1313.5214"
       y="0"
       ry="165.68474" />
    <path
       style="fill:#5da8ff;fill-opacity:1;stroke:none;stroke-width:0.923856"
       d="m 1807.3036,98.1153 c -31.283,4.1075 -61.572,6.18093 -92.3855,14.28271 -74.792,19.66498 -144.8115,62.94184 -196.6245,120.20814 -128.0407,141.51714 -143.2501,356.78845 -35.8692,514.58753 23.9604,35.21049 53.8711,66.75634 87.4483,92.91735 44.7102,34.835 95.9875,59.39414 150.5885,74.16077 52.6207,14.23113 108.7952,16.36523 162.5986,9.11738 C 2089.4286,895.58927 2248.7473,705.931 2239.6316,497.75269 2231.6583,315.66005 2104.4588,154.80662 1926.481,110.31218 1889.3831,101.0377 1845.5991,93.087042 1807.3036,98.1153 m 3.6954,159.69873 c 24.5714,-2.89923 51.9323,1.28947 75.7562,7.24396 114.6497,28.65547 201.1903,139.93315 193.0031,259.48651 -8.6368,126.11891 -103.0754,226.87594 -229.0335,241.78637 -29.0042,3.43344 -59.4773,0.75029 -87.7663,-6.32011 -30.7718,-7.69099 -59.9627,-21.12879 -85.9185,-39.35085 -20.5764,-14.4454 -38.6831,-32.19477 -54.1154,-51.99395 -77.4949,-99.42285 -67.4222,-244.04323 19.0452,-334.4357 45.774,-47.85188 104.9955,-68.86085 169.0292,-76.41623 m -41.5735,66.25382 v 77.60386 c 0,11.07584 -2.3981,25.2936 0.2937,36.03037 2.0378,8.128 14.2573,16.39798 20.0311,22.17253 2.2084,2.20876 7.3395,5.77122 7.3395,9.23856 0,3.46727 -5.1311,7.02984 -7.3395,9.23855 -5.8113,5.81205 -18.8723,14.63779 -20.1879,23.09639 -3.1437,20.21092 -0.1369,43.27043 -0.1369,63.74603 v 132.11134 h 110.8627 v -79.45157 c 0,-9.8533 2.8547,-24.92803 -0.5575,-34.18266 -3.7085,-10.05832 -21.2526,-24.37486 -29.9297,-30.48723 v -0.92386 c 8.6771,-6.11242 26.2213,-20.42891 29.9297,-30.48723 1.9302,-5.2352 0.5575,-12.9474 0.5575,-18.47711 V 462.64618 324.06785 Z"
       id="path1" />
  </g>
</svg>
